<svg
	className="eport-header"
	fill="313131"
	viewBox="0 0 1045 136"
	xmlns="http://www.w3.org/2000/svg"
>
	<path d="M960.06 132.884V35.4863H909.096V3.02026H1012.53C1030.46 3.02026 1045 17.5558 1045 35.4863V35.4863H994.036V132.884H960.06Z" />
	<path d="M718.912 51.7193C720.54 49.352 722.439 47.1538 724.61 45.1246C731.484 38.6991 739.624 35.4863 749.03 35.4863H783.761V51.7193H718.912ZM731.665 132.884L783.761 84.1854V132.884H818.493V3.02026H749.03C729.856 3.02026 713.485 9.44587 699.918 22.297C686.352 34.81 679.568 50.0284 679.568 67.9523V84.1854H731.665L679.568 132.884L731.665 132.884Z" />
	<path d="M520.99 101.963C530.195 101.963 538.161 98.6881 544.888 92.1384C551.614 85.4117 554.978 77.3573 554.978 67.9753C554.978 58.7703 551.614 50.8044 544.888 44.0777C538.161 37.351 530.195 33.9876 520.99 33.9876C511.608 33.9876 503.554 37.351 496.827 44.0777C490.277 50.8044 487.002 58.7703 487.002 67.9753C487.002 77.3573 490.277 85.4117 496.827 92.1384C503.554 98.6881 511.608 101.963 520.99 101.963ZM520.99 135.951C502.049 135.951 485.94 129.312 472.664 116.036C459.564 102.937 453.015 86.9163 453.015 67.9753C453.015 49.2113 459.653 33.1911 472.929 19.9146C486.029 6.63821 502.049 0 520.99 0C539.754 0 555.774 6.72672 569.051 20.1802C582.327 33.2796 588.965 49.2113 588.965 67.9753C588.965 86.9163 582.238 103.025 568.785 116.301C555.686 129.401 539.754 135.951 520.99 135.951Z" />
	<path d="M323.923 51.7193C322.33 49.352 320.472 47.1538 318.349 45.1246C311.624 38.6991 303.661 35.4863 294.459 35.4863H260.483V51.7193H323.923ZM226.507 132.884V3.02026H294.459C313.217 3.02026 329.232 9.44587 342.504 22.297C355.775 34.81 362.411 50.0284 362.411 67.9523V84.1854H260.483V132.884H226.507Z" />
	<path d="M32.4661 132.884C14.5356 132.884 0 118.349 0 100.418V100.418H135.904V132.884H32.4661ZM0 84.1854V51.7193H135.904V84.1854H0ZM0 35.4863V35.4863C0 17.5558 14.5355 3.02026 32.4661 3.02026H135.904V35.4863H0Z" />
	<path d="M32.4661 3.02026C14.5355 3.02026 0 17.5558 0 35.4863V35.4863H135.904V3.02026H32.4661Z" />
</svg>