<svg width="60" height="60" viewBox="0 0 289 289" fill="white" xmlns="http://www.w3.org/2000/svg">
	<path d="M179.911 209.142C197.779 209.142 212.265 194.657 212.265 176.788V176.788H76.7349V192.965L76.7349 209.142H179.911ZM76.7349 160.611V128.257H212.171V160.611H76.7349ZM76.7349 112.08V112.08C76.7349 94.211 91.2203 79.7256 109.089 79.7256L212.171 79.7256V112.08H76.7349Z" />
	<path d="M109.089 79.7256C91.2203 79.7256 76.7349 94.211 76.7349 112.08V112.08H212.171V79.7256L109.089 79.7256Z" />
	<path fill-rule="evenodd" clip-rule="evenodd" d="M144.5 289C224.305 289 289 224.305 289 144.5C289 64.6949 224.305 0 144.5 0C64.6949 0 0 64.6949 0 144.5C0 224.305 64.6949 289 144.5 289ZM144.442 280.742C219.715 280.742 280.736 219.72 280.736 144.447C280.736 69.1735 219.715 8.1523 144.442 8.1523C69.1681 8.1523 8.14692 69.1735 8.14692 144.447C8.14692 219.72 69.1681 280.742 144.442 280.742Z"/>
</svg>