<svg width="30" height="47" viewBox="0 0 30 47" fill="none" xmlns="http://www.w3.org/2000/svg">
<path d="M29.36 33.928C29.36 37.4693 27.8453 40.3493 24.816 42.568C21.7867 44.744 18.4373 45.832 14.768 45.832C11.0987 45.832 7.856 45.192 5.04 43.912L5.552 45.192C5.68 45.448 5.57333 45.6827 5.232 45.896C4.93333 46.152 4.592 46.28 4.208 46.28C3.824 46.28 3.568 46.1733 3.44 45.96C2.07467 42.504 1.24267 38.4933 0.944 33.928C0.944 33.5013 1.28533 33.288 1.968 33.288C2.65067 33.288 3.01333 33.4373 3.056 33.736C3.99467 36.9787 5.89333 39.5813 8.752 41.544C10.5013 42.7813 12.528 43.4 14.832 43.4C17.1787 43.4 19.056 42.7387 20.464 41.416C21.9147 40.0507 22.64 38.4293 22.64 36.552C22.64 34.632 22.1493 32.9253 21.168 31.432C20.1867 29.896 18.9707 28.6587 17.52 27.72C16.0693 26.7813 14.4907 25.8 12.784 24.776C11.0773 23.7093 9.49867 22.7067 8.048 21.768C6.59733 20.7867 5.38133 19.4853 4.4 17.864C3.41867 16.2427 2.928 14.408 2.928 12.36C2.928 9.24533 4.31467 6.62133 7.088 4.488C9.904 2.312 13.424 1.224 17.648 1.224C19.568 1.224 21.36 1.48 23.024 1.992L23.792 2.184C23.6213 1.50133 23.5147 1.032 23.472 0.775997C23.472 0.519998 23.5573 0.349331 23.728 0.263996C23.9413 0.135998 24.24 0.0719986 24.624 0.0719986C25.0507 0.0719986 25.328 0.242666 25.456 0.584C26.4373 4.04 27.0133 7.432 27.184 10.76C27.056 11.016 26.6933 11.144 26.096 11.144C25.5413 11.144 25.2 11.08 25.072 10.952C24.6027 9.20267 23.9413 7.77333 23.088 6.664C22.2347 5.512 21.296 4.72266 20.272 4.296C19.248 3.86933 18.0533 3.656 16.688 3.656C14.0427 3.656 12.144 4.33867 10.992 5.704C9.88267 7.02667 9.328 8.49867 9.328 10.12C9.328 11.6987 9.69067 13.064 10.416 14.216C11.184 15.3253 12.144 16.3067 13.296 17.16C14.4907 17.9707 15.792 18.7813 17.2 19.592C18.608 20.36 20.016 21.192 21.424 22.088C22.8747 22.984 24.1973 23.9653 25.392 25.032C28.0373 27.3787 29.36 30.344 29.36 33.928Z" fill="black"/>
<path d="M24.816 42.568L25.3994 43.3802L25.4069 43.3748L24.816 42.568ZM5.04 43.912L5.4538 43.0016L3.1866 41.9711L4.11152 44.2834L5.04 43.912ZM5.552 45.192L4.62352 45.5634L4.63897 45.602L4.65757 45.6392L5.552 45.192ZM5.232 45.896L4.702 45.048L4.63827 45.0878L4.58121 45.1367L5.232 45.896ZM3.44 45.96L2.50995 46.3274L2.54018 46.4039L2.58251 46.4745L3.44 45.96ZM0.944 33.928H-0.0559998V33.9607L-0.0538667 33.9933L0.944 33.928ZM3.056 33.736L2.06605 33.8774L2.07596 33.9468L2.09544 34.0141L3.056 33.736ZM8.752 41.544L9.32952 40.7275L9.31801 40.7196L8.752 41.544ZM20.464 41.416L21.1487 42.1448L21.1494 42.1442L20.464 41.416ZM21.168 31.432L20.3252 31.9704L20.3323 31.9812L21.168 31.432ZM17.52 27.72L16.9767 28.5596L16.9767 28.5596L17.52 27.72ZM12.784 24.776L12.254 25.624L12.2617 25.6288L12.2695 25.6335L12.784 24.776ZM8.048 21.768L7.48769 22.5963L7.49616 22.602L7.50475 22.6076L8.048 21.768ZM4.4 17.864L5.2555 17.3462L5.2555 17.3462L4.4 17.864ZM7.088 4.488L7.69771 5.28062L7.69945 5.27928L7.088 4.488ZM23.024 1.992L22.7299 2.94778L22.7555 2.95565L22.7815 2.96214L23.024 1.992ZM23.792 2.184L23.5495 3.15414L25.1664 3.55837L24.7621 1.94146L23.792 2.184ZM23.472 0.775997H22.472V0.858759L22.4856 0.940395L23.472 0.775997ZM23.728 0.263996L24.1752 1.15842L24.2096 1.14125L24.2425 1.12149L23.728 0.263996ZM25.456 0.584L26.418 0.310847L26.4068 0.271336L26.3923 0.232878L25.456 0.584ZM27.184 10.76L28.0784 11.2072L28.1962 10.9717L28.1827 10.7088L27.184 10.76ZM25.072 10.952L24.1062 11.2111L24.1755 11.4698L24.3649 11.6591L25.072 10.952ZM23.088 6.664L22.2844 7.25923L22.2898 7.26652L22.2954 7.27371L23.088 6.664ZM20.272 4.296L20.6566 3.37292L20.6566 3.37292L20.272 4.296ZM10.992 5.704L10.2277 5.05912L10.2258 5.06139L10.992 5.704ZM10.416 14.216L9.56977 14.7488L9.58139 14.7673L9.59381 14.7852L10.416 14.216ZM13.296 17.16L12.7008 17.9636L12.7174 17.9759L12.7345 17.9875L13.296 17.16ZM17.2 19.592L16.701 20.4586L16.711 20.4644L16.7211 20.4699L17.2 19.592ZM21.424 22.088L20.8871 22.9317L20.8985 22.9388L21.424 22.088ZM25.392 25.032L24.726 25.7779L24.7284 25.7801L25.392 25.032ZM28.36 33.928C28.36 37.1287 27.0155 39.7176 24.2251 41.7612L25.4069 43.3748C28.6752 40.9811 30.36 37.81 30.36 33.928H28.36ZM24.2326 41.7558C21.3703 43.8119 18.2243 44.832 14.768 44.832V46.832C18.6503 46.832 22.2031 45.6761 25.3994 43.3802L24.2326 41.7558ZM14.768 44.832C11.2152 44.832 8.11791 44.2126 5.4538 43.0016L4.6262 44.8224C7.59409 46.1714 10.9822 46.832 14.768 46.832V44.832ZM4.11152 44.2834L4.62352 45.5634L6.48048 44.8206L5.96848 43.5406L4.11152 44.2834ZM4.65757 45.6392C4.63702 45.5981 4.60931 45.5239 4.60494 45.4234C4.60043 45.3196 4.6225 45.2235 4.65763 45.1462C4.71949 45.0101 4.79235 44.9915 4.702 45.048L5.762 46.744C6.01299 46.5871 6.30984 46.3446 6.47837 45.9738C6.67141 45.5491 6.62847 45.1089 6.44643 44.7448L4.65757 45.6392ZM4.58121 45.1367C4.45895 45.2415 4.34699 45.28 4.208 45.28V47.28C4.83701 47.28 5.40772 47.0625 5.88279 46.6553L4.58121 45.1367ZM4.208 45.28C4.10065 45.28 4.08154 45.264 4.11262 45.2769C4.13105 45.2846 4.16331 45.301 4.20018 45.3318C4.23793 45.3632 4.27153 45.4022 4.29749 45.4455L2.58251 46.4745C2.97583 47.13 3.67636 47.28 4.208 47.28V45.28ZM4.37005 45.5926C3.05051 42.2525 2.23526 38.3474 1.94187 33.8627L-0.0538667 33.9933C0.250074 38.6392 1.09882 42.7555 2.50995 46.3274L4.37005 45.5926ZM1.944 33.928C1.944 33.9565 1.93751 34.0302 1.89035 34.1186C1.84183 34.2096 1.77642 34.267 1.73 34.296C1.6903 34.3208 1.67872 34.3164 1.72395 34.307C1.76815 34.2978 1.84635 34.288 1.968 34.288V32.288C1.55487 32.288 1.07525 32.3467 0.670001 32.6C0.186392 32.9023 -0.0559998 33.3948 -0.0559998 33.928H1.944ZM1.968 34.288C2.10426 34.288 2.206 34.2956 2.27858 34.3059C2.35341 34.3166 2.37856 34.3277 2.37125 34.3247C2.36376 34.3216 2.29684 34.2931 2.22246 34.2109C2.13959 34.1193 2.08361 34.0003 2.06605 33.8774L4.04595 33.5946C3.95945 32.9891 3.52908 32.6385 3.13275 32.4753C2.77261 32.327 2.3576 32.288 1.968 32.288V34.288ZM2.09544 34.0141C3.10032 37.4855 5.1422 40.2786 8.18599 42.3684L9.31801 40.7196C6.64447 38.884 4.88901 36.4718 4.01656 33.4579L2.09544 34.0141ZM8.17454 42.3604C10.1057 43.7263 12.3376 44.4 14.832 44.4V42.4C12.7184 42.4 10.897 41.8363 9.32947 40.7276L8.17454 42.3604ZM14.832 44.4C17.3754 44.4 19.5171 43.6776 21.1487 42.1448L19.7793 40.6872C18.5949 41.7998 16.982 42.4 14.832 42.4V44.4ZM21.1494 42.1442C22.7871 40.6028 23.64 38.7234 23.64 36.552H21.64C21.64 38.1353 21.0423 39.4985 19.7786 40.6878L21.1494 42.1442ZM23.64 36.552C23.64 34.452 23.1003 32.5515 22.0037 30.8828L20.3323 31.9812C21.1984 33.2991 21.64 34.812 21.64 36.552H23.64ZM22.0107 30.8936C20.9566 29.2437 19.6407 27.9011 18.0633 26.8804L16.9767 28.5596C18.3006 29.4162 19.4167 30.5483 20.3253 31.9704L22.0107 30.8936ZM18.0633 26.8804C16.6018 25.9348 15.0134 24.9475 13.2985 23.9185L12.2695 25.6335C13.9679 26.6525 15.5369 27.6279 16.9767 28.5596L18.0633 26.8804ZM13.314 23.928C11.6111 22.8637 10.0369 21.8638 8.59125 20.9284L7.50475 22.6076C8.96046 23.5495 10.5436 24.555 12.254 25.624L13.314 23.928ZM8.60831 20.9397C7.2869 20.0458 6.16825 18.8542 5.2555 17.3462L3.5445 18.3818C4.59441 20.1164 5.90777 21.5275 7.48769 22.5963L8.60831 20.9397ZM5.2555 17.3462C4.3763 15.8936 3.928 14.2407 3.928 12.36H1.928C1.928 14.5753 2.46104 16.5917 3.5445 18.3818L5.2555 17.3462ZM3.928 12.36C3.928 9.59707 5.1358 7.25133 7.69771 5.28062L6.47829 3.69538C3.49354 5.99134 1.928 8.8936 1.928 12.36H3.928ZM7.69945 5.27928C10.3092 3.26264 13.6025 2.224 17.648 2.224V0.223999C13.2455 0.223999 9.49878 1.36135 6.47655 3.69671L7.69945 5.27928ZM17.648 2.224C19.4785 2.224 21.1704 2.46794 22.7299 2.94778L23.3181 1.03622C21.5496 0.492059 19.6575 0.223999 17.648 0.223999V2.224ZM22.7815 2.96214L23.5495 3.15414L24.0345 1.21386L23.2665 1.02185L22.7815 2.96214ZM24.7621 1.94146C24.5906 1.25528 24.4936 0.822699 24.4584 0.6116L22.4856 0.940395C22.5358 1.24129 22.6521 1.74738 22.8219 2.42653L24.7621 1.94146ZM24.472 0.775997C24.472 0.752647 24.4767 0.810585 24.4304 0.903208C24.3763 1.0114 24.2834 1.10432 24.1752 1.15842L23.2808 -0.630427C22.6546 -0.31733 22.472 0.292238 22.472 0.775997H24.472ZM24.2425 1.12149C24.2361 1.12531 24.2562 1.1118 24.3215 1.0978C24.3871 1.08376 24.4853 1.072 24.624 1.072V-0.928001C24.1492 -0.928001 23.6449 -0.852312 23.2135 -0.5935L24.2425 1.12149ZM24.624 1.072C24.7084 1.072 24.6887 1.08905 24.6279 1.05166C24.5975 1.03294 24.5696 1.00803 24.548 0.980701C24.5271 0.954418 24.5199 0.935812 24.5197 0.935122L26.3923 0.232878C26.2602 -0.119581 26.0265 -0.436033 25.6761 -0.651659C25.338 -0.859716 24.9662 -0.928001 24.624 -0.928001V1.072ZM24.494 0.857152C25.4564 4.24638 26.0188 7.56393 26.1853 10.8112L28.1827 10.7088C28.0079 7.30006 27.4183 3.83361 26.418 0.310847L24.494 0.857152ZM26.2896 10.3128C26.3296 10.2327 26.3827 10.1757 26.4277 10.1405C26.4691 10.1081 26.4946 10.101 26.4832 10.105C26.4717 10.109 26.4362 10.1197 26.3678 10.1288C26.3004 10.1378 26.2109 10.144 26.096 10.144V12.144C26.4524 12.144 26.8184 12.1076 27.1488 11.991C27.4885 11.8711 27.8633 11.6375 28.0784 11.2072L26.2896 10.3128ZM26.096 10.144C25.8486 10.144 25.6933 10.1291 25.6083 10.1131C25.567 10.1054 25.5645 10.1014 25.5866 10.1104C25.6051 10.118 25.6876 10.1534 25.7791 10.2449L24.3649 11.6591C24.652 11.9462 25.0248 12.0386 25.2397 12.0789C25.496 12.1269 25.7887 12.144 26.096 12.144V10.144ZM26.0378 10.6929C25.544 8.85212 24.834 7.29371 23.8806 6.05429L22.2954 7.27371C23.0486 8.25295 23.6614 9.55321 24.1062 11.2111L26.0378 10.6929ZM23.8916 6.06877C22.9615 4.81324 21.8893 3.88656 20.6566 3.37292L19.8874 5.21907C20.7027 5.55877 21.5078 6.21075 22.2844 7.25923L23.8916 6.06877ZM20.6566 3.37292C19.4861 2.88522 18.1558 2.656 16.688 2.656V4.656C17.9509 4.656 19.0099 4.85345 19.8874 5.21907L20.6566 3.37292ZM16.688 2.656C13.8926 2.656 11.6465 3.37756 10.2277 5.05913L11.7563 6.34887C12.6415 5.29977 14.1927 4.656 16.688 4.656V2.656ZM10.2258 5.06139C8.97601 6.55153 8.328 8.24771 8.328 10.12H10.328C10.328 8.74962 10.7893 7.5018 11.7582 6.34661L10.2258 5.06139ZM8.328 10.12C8.328 11.8565 8.72878 13.4131 9.56977 14.7488L11.2622 13.6832C10.6525 12.7149 10.328 11.5408 10.328 10.12H8.328ZM9.59381 14.7852C10.4279 15.99 11.4663 17.0492 12.7008 17.9636L13.8912 16.3564C12.8217 15.5642 11.9401 14.6606 11.2382 13.6468L9.59381 14.7852ZM12.7345 17.9875C13.9519 18.8135 15.2743 19.6372 16.701 20.4586L17.699 18.7254C16.3097 17.9255 15.0295 17.1278 13.8575 16.3325L12.7345 17.9875ZM16.7211 20.4699C18.1087 21.2267 19.4973 22.0472 20.8871 22.9317L21.9609 21.2443C20.5347 20.3368 19.1073 19.4933 17.6789 18.7141L16.7211 20.4699ZM20.8985 22.9388C22.3025 23.806 23.5777 24.7527 24.726 25.7779L26.058 24.2861C24.817 23.178 23.4468 22.162 21.9495 21.2372L20.8985 22.9388ZM24.7284 25.7801C27.1565 27.934 28.36 30.6256 28.36 33.928H30.36C30.36 30.0624 28.9182 26.8233 26.0556 24.2839L24.7284 25.7801Z" fill="black"/>
</svg>
